<?xml version="1.0" standalone="no"?><!DOCTYPE svg PUBLIC "-//W3C//DTD SVG 1.1//EN" "http://www.w3.org/Graphics/SVG/1.1/DTD/svg11.dtd"><svg t="1631555600546" class="icon" viewBox="0 0 1024 1024" version="1.1" xmlns="http://www.w3.org/2000/svg" p-id="24421" xmlns:xlink="http://www.w3.org/1999/xlink" width="100" height="100"><defs><style type="text/css"></style></defs><path d="M981.333333 768a42.666667 42.666667 0 0 1-42.666666 42.666667h-128v128a42.666667 42.666667 0 0 1-85.333334 0v-128h-128a42.666667 42.666667 0 0 1 0-85.333334h128v-128a42.666667 42.666667 0 0 1 85.333334 0v128h128a42.666667 42.666667 0 0 1 42.666666 42.666667zM938.666667 128H85.333333a42.666667 42.666667 0 0 0-42.666666 42.666667v682.666666a42.666667 42.666667 0 0 0 42.666666 42.666667h385.333334a42.666667 42.666667 0 0 0 0-85.333333H128v-25l213.333333-213.333334 97.826667 97.84a42.666667 42.666667 0 0 0 60.346667 0L682.666667 487l12.493333 12.506667a42.666667 42.666667 0 0 0 60.346667-60.346667l-42.666667-42.666667a42.666667 42.666667 0 0 0-60.346667 0L469.333333 579.666667l-97.826666-97.84a42.666667 42.666667 0 0 0-60.346667 0L128 665V213.333333h768v298.666667a42.666667 42.666667 0 0 0 85.333333 0V170.666667a42.666667 42.666667 0 0 0-42.666666-42.666667zM341.333333 329.333333a53.333333 53.333333 0 1 0 53.333334-53.333333 53.333333 53.333333 0 0 0-53.333334 53.333333z" p-id="24422"></path></svg>